<svg width="18" height="18" viewBox="0 0 18 18" fill="none" xmlns="http://www.w3.org/2000/svg">
<g id="home-line">
<path id="Icon" d="M5.78682 12.9076H11.5736M7.96967 2.61002L3.06368 6.42579C2.73574 6.68086 2.57176 6.80839 2.45363 6.96811C2.34899 7.10959 2.27104 7.26897 2.22361 7.43843C2.17006 7.62973 2.17006 7.83746 2.17006 8.25292V13.4863C2.17006 14.2965 2.17006 14.7017 2.32774 15.0111C2.46644 15.2833 2.68776 15.5047 2.95997 15.6434C3.26944 15.801 3.67455 15.801 4.48478 15.801H12.8757C13.6859 15.801 14.091 15.801 14.4005 15.6434C14.6727 15.5047 14.894 15.2833 15.0327 15.0111C15.1904 14.7017 15.1904 14.2965 15.1904 13.4863V8.25292C15.1904 7.83746 15.1904 7.62973 15.1368 7.43843C15.0894 7.26897 15.0114 7.10959 14.9068 6.96811C14.7887 6.80839 14.6247 6.68086 14.2968 6.42579L9.39077 2.61002C9.13664 2.41236 9.00957 2.31353 8.86927 2.27555C8.74546 2.24203 8.61498 2.24203 8.49117 2.27555C8.35087 2.31353 8.2238 2.41236 7.96967 2.61002Z" stroke="#667085" stroke-width="1.4467" stroke-linecap="round" stroke-linejoin="round"/>
</g>
</svg>
