<svg width="13" height="12" viewBox="0 0 13 12" fill="none" xmlns="http://www.w3.org/2000/svg">
<g id="star-01">
<path id="Icon" d="M6.10457 2.46005C6.21166 2.2431 6.2652 2.13462 6.33789 2.09996C6.40114 2.06981 6.47462 2.06981 6.53786 2.09996C6.61055 2.13462 6.6641 2.2431 6.77119 2.46005L7.78719 4.51836C7.81881 4.58241 7.83461 4.61443 7.85772 4.6393C7.87817 4.66131 7.9027 4.67915 7.92995 4.69182C7.96073 4.70614 7.99606 4.7113 8.06674 4.72163L10.3394 5.05381C10.5787 5.08879 10.6984 5.10628 10.7537 5.16473C10.8019 5.21559 10.8246 5.28547 10.8154 5.35492C10.8049 5.43475 10.7182 5.51913 10.545 5.68788L8.90109 7.28902C8.84985 7.33893 8.82423 7.36389 8.80769 7.39359C8.79305 7.41988 8.78366 7.44876 8.78004 7.47863C8.77595 7.51237 8.782 7.54763 8.79409 7.61813L9.18197 9.87967C9.22288 10.1182 9.24333 10.2375 9.20489 10.3082C9.17145 10.3698 9.11199 10.413 9.04309 10.4258C8.9639 10.4405 8.8568 10.3841 8.6426 10.2715L6.61089 9.20303C6.54759 9.16974 6.51593 9.1531 6.48259 9.14656C6.45306 9.14077 6.42269 9.14077 6.39317 9.14656C6.35982 9.1531 6.32817 9.16974 6.26487 9.20303L4.23316 10.2715C4.01896 10.3841 3.91186 10.4405 3.83266 10.4258C3.76376 10.413 3.70431 10.3698 3.67086 10.3082C3.63242 10.2375 3.65288 10.1182 3.69379 9.87967L4.08167 7.61813C4.09376 7.54763 4.09981 7.51237 4.09572 7.47863C4.09209 7.44876 4.0827 7.41988 4.06806 7.39359C4.05153 7.36389 4.02591 7.33893 3.97466 7.28902L2.33078 5.68788C2.15752 5.51913 2.07089 5.43475 2.06035 5.35492C2.05118 5.28547 2.07384 5.21559 2.12202 5.16473C2.1774 5.10628 2.29706 5.08879 2.53637 5.05381L4.80901 4.72163C4.87969 4.7113 4.91503 4.70614 4.94581 4.69182C4.97305 4.67915 4.99759 4.66131 5.01804 4.6393C5.04114 4.61443 5.05695 4.58241 5.08857 4.51836L6.10457 2.46005Z" fill="#FAC515"/>
</g>
</svg>
